<mxfile host="app.diagrams.net" modified="2021-02-27T03:18:52.370Z" agent="5.0 (Windows NT 10.0; Win64; x64) AppleWebKit/537.36 (KHTML, like Gecko) Chrome/84.0.4147.125 Safari/537.36" etag="y8cDjEzkWhsjbM1WgVQO" version="14.4.2" type="github">
  <diagram id="siUtsgghEpy1exS8Fkqo" name="Page-1">
    <mxGraphModel dx="1673" dy="2044" grid="0" gridSize="10" guides="1" tooltips="1" connect="1" arrows="1" fold="1" page="1" pageScale="1" pageWidth="827" pageHeight="1169" math="0" shadow="0">
      <root>
        <mxCell id="0" />
        <mxCell id="1" parent="0" />
        <mxCell id="vHyW8OZ8oajhjJQPIOyE-1" value="&lt;font style=&quot;font-size: 15px&quot; color=&quot;#ffffff&quot;&gt;&lt;b&gt;开始&lt;/b&gt;&lt;/font&gt;" style="rounded=1;whiteSpace=wrap;html=1;fillColor=#005CA2;strokeColor=#005CA2;" vertex="1" parent="1">
          <mxGeometry x="370.75" y="-743" width="120" height="60" as="geometry" />
        </mxCell>
        <mxCell id="vHyW8OZ8oajhjJQPIOyE-2" value="&lt;font style=&quot;font-size: 15px&quot; color=&quot;#ffffff&quot;&gt;&lt;b&gt;生成安全区&lt;/b&gt;&lt;/font&gt;" style="rounded=0;whiteSpace=wrap;html=1;gradientColor=none;strokeColor=#005CA2;fillColor=#005CA2;" vertex="1" parent="1">
          <mxGeometry x="365.75" y="-659" width="130" height="50" as="geometry" />
        </mxCell>
        <mxCell id="vHyW8OZ8oajhjJQPIOyE-3" value="" style="endArrow=classic;html=1;exitX=0.5;exitY=1;exitDx=0;exitDy=0;strokeColor=#005CA2;" edge="1" parent="1" source="vHyW8OZ8oajhjJQPIOyE-1" target="vHyW8OZ8oajhjJQPIOyE-2">
          <mxGeometry width="50" height="50" relative="1" as="geometry">
            <mxPoint x="330.75" y="-443" as="sourcePoint" />
            <mxPoint x="380.75" y="-493" as="targetPoint" />
          </mxGeometry>
        </mxCell>
        <mxCell id="vHyW8OZ8oajhjJQPIOyE-4" value="&lt;font style=&quot;font-size: 15px&quot; color=&quot;#ffffff&quot;&gt;&lt;b&gt;从云端下载初始参数并在本地进行训练&lt;/b&gt;&lt;/font&gt;" style="rounded=0;whiteSpace=wrap;html=1;gradientColor=none;strokeColor=#005CA2;fillColor=#005CA2;" vertex="1" parent="1">
          <mxGeometry x="350.75" y="-581" width="160" height="60" as="geometry" />
        </mxCell>
        <mxCell id="vHyW8OZ8oajhjJQPIOyE-6" value="" style="endArrow=classic;html=1;exitX=0.5;exitY=1;exitDx=0;exitDy=0;entryX=0.5;entryY=0;entryDx=0;entryDy=0;strokeColor=#005CA2;" edge="1" parent="1" source="vHyW8OZ8oajhjJQPIOyE-2" target="vHyW8OZ8oajhjJQPIOyE-4">
          <mxGeometry width="50" height="50" relative="1" as="geometry">
            <mxPoint x="390.75" y="-413" as="sourcePoint" />
            <mxPoint x="430.75" y="-573" as="targetPoint" />
          </mxGeometry>
        </mxCell>
        <mxCell id="vHyW8OZ8oajhjJQPIOyE-7" value="&lt;span style=&quot;font-size: 15px&quot;&gt;&lt;b&gt;&lt;font color=&quot;#ffffff&quot;&gt;上传签名和模型参数&lt;/font&gt;&lt;/b&gt;&lt;/span&gt;" style="rounded=0;whiteSpace=wrap;html=1;gradientColor=none;strokeColor=#005CA2;fillColor=#005CA2;" vertex="1" parent="1">
          <mxGeometry x="350.75" y="-492" width="160" height="60" as="geometry" />
        </mxCell>
        <mxCell id="vHyW8OZ8oajhjJQPIOyE-9" value="" style="endArrow=classic;html=1;exitX=0.5;exitY=1;exitDx=0;exitDy=0;strokeColor=#005CA2;" edge="1" parent="1" source="vHyW8OZ8oajhjJQPIOyE-4" target="vHyW8OZ8oajhjJQPIOyE-7">
          <mxGeometry width="50" height="50" relative="1" as="geometry">
            <mxPoint x="480.75" y="-313" as="sourcePoint" />
            <mxPoint x="530.75" y="-363" as="targetPoint" />
          </mxGeometry>
        </mxCell>
        <mxCell id="vHyW8OZ8oajhjJQPIOyE-10" value="&lt;font style=&quot;font-size: 15px&quot; color=&quot;#ffffff&quot;&gt;&lt;b&gt;云端验证并更新梯度&lt;/b&gt;&lt;/font&gt;" style="rounded=0;whiteSpace=wrap;html=1;strokeColor=#005CA2;fillColor=#005CA2;" vertex="1" parent="1">
          <mxGeometry x="350.75" y="-402" width="160" height="50" as="geometry" />
        </mxCell>
        <mxCell id="vHyW8OZ8oajhjJQPIOyE-11" value="" style="endArrow=classic;html=1;exitX=0.5;exitY=1;exitDx=0;exitDy=0;strokeColor=#005CA2;" edge="1" parent="1" source="vHyW8OZ8oajhjJQPIOyE-7" target="vHyW8OZ8oajhjJQPIOyE-10">
          <mxGeometry width="50" height="50" relative="1" as="geometry">
            <mxPoint x="430.75" y="-233" as="sourcePoint" />
            <mxPoint x="480.75" y="-283" as="targetPoint" />
          </mxGeometry>
        </mxCell>
        <mxCell id="vHyW8OZ8oajhjJQPIOyE-12" value="&lt;font style=&quot;font-size: 15px&quot; color=&quot;#ffffff&quot;&gt;&lt;b&gt;从云端下载更新好的梯度并修改本地梯度&lt;/b&gt;&lt;/font&gt;" style="rounded=0;whiteSpace=wrap;html=1;gradientColor=none;strokeColor=#005CA2;fillColor=#005CA2;" vertex="1" parent="1">
          <mxGeometry x="348.25" y="-321" width="165" height="60" as="geometry" />
        </mxCell>
        <mxCell id="vHyW8OZ8oajhjJQPIOyE-13" value="" style="endArrow=classic;html=1;exitX=0.5;exitY=1;exitDx=0;exitDy=0;strokeColor=#005CA2;" edge="1" parent="1" source="vHyW8OZ8oajhjJQPIOyE-10" target="vHyW8OZ8oajhjJQPIOyE-12">
          <mxGeometry width="50" height="50" relative="1" as="geometry">
            <mxPoint x="650.75" y="-303" as="sourcePoint" />
            <mxPoint x="700.75" y="-353" as="targetPoint" />
          </mxGeometry>
        </mxCell>
        <mxCell id="vHyW8OZ8oajhjJQPIOyE-15" value="&lt;span style=&quot;font-size: 15px&quot;&gt;&lt;font color=&quot;#ffffff&quot;&gt;&lt;b&gt;结束&lt;/b&gt;&lt;/font&gt;&lt;/span&gt;" style="rounded=1;whiteSpace=wrap;html=1;strokeColor=#005CA2;fillColor=#005CA2;" vertex="1" parent="1">
          <mxGeometry x="370.75" y="-233" width="120" height="60" as="geometry" />
        </mxCell>
        <mxCell id="vHyW8OZ8oajhjJQPIOyE-16" value="" style="endArrow=classic;html=1;exitX=0.5;exitY=1;exitDx=0;exitDy=0;strokeColor=#005CA2;" edge="1" parent="1" source="vHyW8OZ8oajhjJQPIOyE-12" target="vHyW8OZ8oajhjJQPIOyE-15">
          <mxGeometry width="50" height="50" relative="1" as="geometry">
            <mxPoint x="430.75" y="-253" as="sourcePoint" />
            <mxPoint x="610.75" y="-223" as="targetPoint" />
          </mxGeometry>
        </mxCell>
        <mxCell id="vHyW8OZ8oajhjJQPIOyE-21" value="" style="rounded=0;whiteSpace=wrap;html=1;strokeColor=#005CA2;gradientColor=none;fillColor=none;" vertex="1" parent="1">
          <mxGeometry x="169" y="-755" width="523.5" height="586" as="geometry" />
        </mxCell>
        <mxCell id="vHyW8OZ8oajhjJQPIOyE-22" value="" style="rounded=1;whiteSpace=wrap;html=1;strokeColor=#005CA2;gradientColor=none;fillColor=#005CA2;" vertex="1" parent="1">
          <mxGeometry x="34" y="868" width="141" height="142" as="geometry" />
        </mxCell>
        <mxCell id="vHyW8OZ8oajhjJQPIOyE-23" value="&lt;font style=&quot;font-size: 15px&quot; color=&quot;#ffffff&quot;&gt;&lt;b&gt;安全区&lt;/b&gt;&lt;/font&gt;" style="text;html=1;strokeColor=none;fillColor=none;align=center;verticalAlign=middle;whiteSpace=wrap;rounded=0;" vertex="1" parent="1">
          <mxGeometry x="75" y="883" width="52" height="20" as="geometry" />
        </mxCell>
        <mxCell id="vHyW8OZ8oajhjJQPIOyE-24" value="&lt;font style=&quot;font-size: 15px&quot; color=&quot;#ffffff&quot;&gt;&lt;b&gt;梯度向量G&lt;sub&gt;1&lt;/sub&gt;&lt;/b&gt;&lt;/font&gt;" style="rounded=1;whiteSpace=wrap;html=1;strokeColor=#005CA2;gradientColor=none;fillColor=#9CC3E5;" vertex="1" parent="1">
          <mxGeometry x="51.5" y="912" width="106" height="25" as="geometry" />
        </mxCell>
        <mxCell id="vHyW8OZ8oajhjJQPIOyE-25" style="edgeStyle=orthogonalEdgeStyle;rounded=0;orthogonalLoop=1;jettySize=auto;html=1;exitX=0.75;exitY=1;exitDx=0;exitDy=0;strokeColor=#005CA2;" edge="1" parent="1" source="vHyW8OZ8oajhjJQPIOyE-24" target="vHyW8OZ8oajhjJQPIOyE-24">
          <mxGeometry relative="1" as="geometry" />
        </mxCell>
        <mxCell id="vHyW8OZ8oajhjJQPIOyE-29" value="" style="edgeStyle=orthogonalEdgeStyle;rounded=0;orthogonalLoop=1;jettySize=auto;html=1;strokeColor=#FFFFFF;" edge="1" parent="1" source="vHyW8OZ8oajhjJQPIOyE-26" target="vHyW8OZ8oajhjJQPIOyE-24">
          <mxGeometry relative="1" as="geometry" />
        </mxCell>
        <mxCell id="vHyW8OZ8oajhjJQPIOyE-26" value="&lt;font color=&quot;#ffffff&quot;&gt;&lt;b&gt;训练程序&lt;/b&gt;&lt;/font&gt;" style="text;html=1;strokeColor=none;fillColor=none;align=center;verticalAlign=middle;whiteSpace=wrap;rounded=0;" vertex="1" parent="1">
          <mxGeometry x="75" y="963" width="61" height="20" as="geometry" />
        </mxCell>
        <mxCell id="vHyW8OZ8oajhjJQPIOyE-28" value="" style="endArrow=classic;html=1;exitX=0.5;exitY=0;exitDx=0;exitDy=0;entryX=0.5;entryY=1;entryDx=0;entryDy=0;strokeColor=#66B2FF;" edge="1" parent="1" source="vHyW8OZ8oajhjJQPIOyE-26" target="vHyW8OZ8oajhjJQPIOyE-24">
          <mxGeometry width="50" height="50" relative="1" as="geometry">
            <mxPoint x="280" y="1077" as="sourcePoint" />
            <mxPoint x="101" y="1088" as="targetPoint" />
          </mxGeometry>
        </mxCell>
        <mxCell id="vHyW8OZ8oajhjJQPIOyE-30" value="&lt;font style=&quot;font-size: 15px&quot; color=&quot;#ffffff&quot;&gt;D&lt;sub&gt;1&lt;/sub&gt;&lt;/font&gt;" style="rounded=1;whiteSpace=wrap;html=1;strokeColor=#005CA2;gradientColor=none;fillColor=#005CA2;" vertex="1" parent="1">
          <mxGeometry x="62.75" y="1036" width="83.5" height="34" as="geometry" />
        </mxCell>
        <mxCell id="vHyW8OZ8oajhjJQPIOyE-31" value="" style="endArrow=classic;html=1;strokeColor=#FFFFFF;entryX=0.5;entryY=1;entryDx=0;entryDy=0;exitX=0.5;exitY=0;exitDx=0;exitDy=0;" edge="1" parent="1" source="vHyW8OZ8oajhjJQPIOyE-30" target="vHyW8OZ8oajhjJQPIOyE-22">
          <mxGeometry width="50" height="50" relative="1" as="geometry">
            <mxPoint x="243" y="1162" as="sourcePoint" />
            <mxPoint x="293" y="1112" as="targetPoint" />
          </mxGeometry>
        </mxCell>
        <mxCell id="vHyW8OZ8oajhjJQPIOyE-33" value="" style="endArrow=classic;html=1;exitX=0.5;exitY=0;exitDx=0;exitDy=0;entryX=0.5;entryY=1;entryDx=0;entryDy=0;strokeColor=#66B2FF;" edge="1" parent="1" source="vHyW8OZ8oajhjJQPIOyE-30" target="vHyW8OZ8oajhjJQPIOyE-22">
          <mxGeometry width="50" height="50" relative="1" as="geometry">
            <mxPoint x="115.5" y="973" as="sourcePoint" />
            <mxPoint x="114.5" y="947" as="targetPoint" />
          </mxGeometry>
        </mxCell>
        <mxCell id="vHyW8OZ8oajhjJQPIOyE-34" value="&lt;b&gt;参与方1&lt;/b&gt;" style="text;html=1;strokeColor=none;fillColor=none;align=center;verticalAlign=middle;whiteSpace=wrap;rounded=0;" vertex="1" parent="1">
          <mxGeometry x="78.25" y="1078" width="52.5" height="20" as="geometry" />
        </mxCell>
        <mxCell id="vHyW8OZ8oajhjJQPIOyE-37" value="" style="rounded=1;whiteSpace=wrap;html=1;strokeColor=#005CA2;fillColor=#005CA2;gradientColor=none;" vertex="1" parent="1">
          <mxGeometry x="285" y="576" width="202" height="189" as="geometry" />
        </mxCell>
        <mxCell id="vHyW8OZ8oajhjJQPIOyE-38" value="&lt;font color=&quot;#ffffff&quot; style=&quot;font-size: 15px&quot;&gt;&lt;b&gt;安全区&lt;br&gt;集成程序&lt;br&gt;&lt;/b&gt;&lt;/font&gt;" style="text;html=1;strokeColor=none;fillColor=none;align=center;verticalAlign=middle;whiteSpace=wrap;rounded=0;" vertex="1" parent="1">
          <mxGeometry x="353.5" y="587" width="65" height="21" as="geometry" />
        </mxCell>
        <mxCell id="vHyW8OZ8oajhjJQPIOyE-39" value="" style="rounded=1;whiteSpace=wrap;html=1;strokeColor=#005CA2;gradientColor=none;fillColor=#9CC3E5;" vertex="1" parent="1">
          <mxGeometry x="319.5" y="638" width="133" height="118" as="geometry" />
        </mxCell>
        <mxCell id="vHyW8OZ8oajhjJQPIOyE-40" value="" style="endArrow=classic;html=1;strokeColor=#66B2FF;exitX=0.5;exitY=1;exitDx=0;exitDy=0;" edge="1" parent="1" source="vHyW8OZ8oajhjJQPIOyE-38" target="vHyW8OZ8oajhjJQPIOyE-39">
          <mxGeometry width="50" height="50" relative="1" as="geometry">
            <mxPoint x="585" y="616" as="sourcePoint" />
            <mxPoint x="446" y="883" as="targetPoint" />
          </mxGeometry>
        </mxCell>
        <mxCell id="vHyW8OZ8oajhjJQPIOyE-41" value="&lt;font style=&quot;font-size: 15px&quot; color=&quot;#ffffff&quot;&gt;全局模型&lt;/font&gt;" style="text;html=1;strokeColor=none;fillColor=none;align=center;verticalAlign=middle;whiteSpace=wrap;rounded=0;" vertex="1" parent="1">
          <mxGeometry x="351.5" y="660.5" width="80" height="20" as="geometry" />
        </mxCell>
        <mxCell id="vHyW8OZ8oajhjJQPIOyE-42" value="&lt;p class=&quot;MsoNormal&quot; align=&quot;left&quot; style=&quot;text-align: left ; text-indent: 9.95pt ; line-height: 300%&quot;&gt;&lt;span style=&quot;line-height: 300%&quot;&gt;&lt;font style=&quot;font-size: 18px&quot; color=&quot;#ffffff&quot;&gt;&lt;b&gt;θ&lt;sub&gt;global&lt;/sub&gt;&lt;/b&gt;&lt;/font&gt;&lt;/span&gt;&lt;span lang=&quot;EN-US&quot; style=&quot;line-height: 300% ; display: none&quot;&gt;&lt;img width=&quot;554&quot; height=&quot;231&quot;&gt;&lt;/span&gt;&lt;span lang=&quot;EN-US&quot; style=&quot;line-height: 300% ; display: none&quot;&gt;&lt;/span&gt;&lt;/p&gt;" style="text;html=1;strokeColor=none;fillColor=none;align=center;verticalAlign=middle;whiteSpace=wrap;rounded=0;" vertex="1" parent="1">
          <mxGeometry x="366" y="687" width="40" height="20" as="geometry" />
        </mxCell>
        <mxCell id="vHyW8OZ8oajhjJQPIOyE-44" value="&lt;font style=&quot;font-size: 15px&quot; color=&quot;#ffffff&quot;&gt;&lt;b&gt;集成服务器&lt;/b&gt;&lt;/font&gt;" style="rounded=1;whiteSpace=wrap;html=1;strokeColor=#005CA2;gradientColor=none;fillColor=#005CA2;" vertex="1" parent="1">
          <mxGeometry x="468" y="738" width="120" height="60" as="geometry" />
        </mxCell>
        <mxCell id="vHyW8OZ8oajhjJQPIOyE-51" value="" style="rounded=1;whiteSpace=wrap;html=1;strokeColor=#005CA2;gradientColor=none;fillColor=#005CA2;" vertex="1" parent="1">
          <mxGeometry x="634" y="868" width="141" height="142" as="geometry" />
        </mxCell>
        <mxCell id="vHyW8OZ8oajhjJQPIOyE-52" value="&lt;font style=&quot;font-size: 15px&quot; color=&quot;#ffffff&quot;&gt;&lt;b&gt;安全区&lt;/b&gt;&lt;/font&gt;" style="text;html=1;strokeColor=none;fillColor=none;align=center;verticalAlign=middle;whiteSpace=wrap;rounded=0;" vertex="1" parent="1">
          <mxGeometry x="675" y="883" width="52" height="20" as="geometry" />
        </mxCell>
        <mxCell id="vHyW8OZ8oajhjJQPIOyE-53" value="&lt;font color=&quot;#ffffff&quot;&gt;&lt;b&gt;&lt;span style=&quot;font-size: 15px&quot;&gt;梯度向量G&lt;/span&gt;&lt;span style=&quot;font-size: 12.5px&quot;&gt;n&lt;/span&gt;&lt;/b&gt;&lt;/font&gt;" style="rounded=1;whiteSpace=wrap;html=1;strokeColor=#005CA2;gradientColor=none;fillColor=#9CC3E5;" vertex="1" parent="1">
          <mxGeometry x="651.5" y="912" width="106" height="25" as="geometry" />
        </mxCell>
        <mxCell id="vHyW8OZ8oajhjJQPIOyE-54" style="edgeStyle=orthogonalEdgeStyle;rounded=0;orthogonalLoop=1;jettySize=auto;html=1;exitX=0.75;exitY=1;exitDx=0;exitDy=0;strokeColor=#005CA2;" edge="1" parent="1" source="vHyW8OZ8oajhjJQPIOyE-53" target="vHyW8OZ8oajhjJQPIOyE-53">
          <mxGeometry relative="1" as="geometry" />
        </mxCell>
        <mxCell id="vHyW8OZ8oajhjJQPIOyE-55" value="" style="edgeStyle=orthogonalEdgeStyle;rounded=0;orthogonalLoop=1;jettySize=auto;html=1;strokeColor=#FFFFFF;" edge="1" parent="1" source="vHyW8OZ8oajhjJQPIOyE-56" target="vHyW8OZ8oajhjJQPIOyE-53">
          <mxGeometry relative="1" as="geometry" />
        </mxCell>
        <mxCell id="vHyW8OZ8oajhjJQPIOyE-56" value="&lt;font color=&quot;#ffffff&quot;&gt;&lt;b&gt;训练程序&lt;/b&gt;&lt;/font&gt;" style="text;html=1;strokeColor=none;fillColor=none;align=center;verticalAlign=middle;whiteSpace=wrap;rounded=0;" vertex="1" parent="1">
          <mxGeometry x="675" y="963" width="61" height="20" as="geometry" />
        </mxCell>
        <mxCell id="vHyW8OZ8oajhjJQPIOyE-57" value="" style="endArrow=classic;html=1;exitX=0.5;exitY=0;exitDx=0;exitDy=0;entryX=0.5;entryY=1;entryDx=0;entryDy=0;strokeColor=#66B2FF;" edge="1" parent="1" source="vHyW8OZ8oajhjJQPIOyE-56" target="vHyW8OZ8oajhjJQPIOyE-53">
          <mxGeometry width="50" height="50" relative="1" as="geometry">
            <mxPoint x="880" y="1077" as="sourcePoint" />
            <mxPoint x="701" y="1088" as="targetPoint" />
          </mxGeometry>
        </mxCell>
        <mxCell id="vHyW8OZ8oajhjJQPIOyE-58" value="&lt;font style=&quot;font-size: 15px&quot; color=&quot;#ffffff&quot;&gt;D&lt;sub&gt;1&lt;/sub&gt;&lt;/font&gt;" style="rounded=1;whiteSpace=wrap;html=1;strokeColor=#005CA2;gradientColor=none;fillColor=#005CA2;" vertex="1" parent="1">
          <mxGeometry x="663.75" y="1027" width="83.5" height="34" as="geometry" />
        </mxCell>
        <mxCell id="vHyW8OZ8oajhjJQPIOyE-59" value="&lt;b&gt;参与方n&lt;/b&gt;" style="text;html=1;strokeColor=none;fillColor=none;align=center;verticalAlign=middle;whiteSpace=wrap;rounded=0;" vertex="1" parent="1">
          <mxGeometry x="679.25" y="1074" width="52.5" height="20" as="geometry" />
        </mxCell>
        <mxCell id="vHyW8OZ8oajhjJQPIOyE-60" value="" style="endArrow=classic;html=1;entryX=0.5;entryY=1;entryDx=0;entryDy=0;strokeColor=#66B2FF;exitX=0.5;exitY=0;exitDx=0;exitDy=0;" edge="1" parent="1" source="vHyW8OZ8oajhjJQPIOyE-58" target="vHyW8OZ8oajhjJQPIOyE-51">
          <mxGeometry width="50" height="50" relative="1" as="geometry">
            <mxPoint x="222" y="1056" as="sourcePoint" />
            <mxPoint x="114.5" y="1020" as="targetPoint" />
          </mxGeometry>
        </mxCell>
        <mxCell id="vHyW8OZ8oajhjJQPIOyE-61" value="" style="endArrow=classic;html=1;strokeColor=#66B2FF;exitX=1;exitY=0.5;exitDx=0;exitDy=0;entryX=0.01;entryY=0.375;entryDx=0;entryDy=0;entryPerimeter=0;rounded=0;" edge="1" parent="1" source="vHyW8OZ8oajhjJQPIOyE-22" target="vHyW8OZ8oajhjJQPIOyE-37">
          <mxGeometry width="50" height="50" relative="1" as="geometry">
            <mxPoint x="310" y="1000" as="sourcePoint" />
            <mxPoint x="360" y="950" as="targetPoint" />
            <Array as="points">
              <mxPoint x="240" y="939" />
              <mxPoint x="240" y="647" />
            </Array>
          </mxGeometry>
        </mxCell>
        <mxCell id="vHyW8OZ8oajhjJQPIOyE-63" value="" style="endArrow=classic;startArrow=classic;html=1;strokeColor=#66B2FF;exitX=1;exitY=0.81;exitDx=0;exitDy=0;exitPerimeter=0;entryX=-0.025;entryY=0.813;entryDx=0;entryDy=0;entryPerimeter=0;" edge="1" parent="1" source="vHyW8OZ8oajhjJQPIOyE-22" target="vHyW8OZ8oajhjJQPIOyE-51">
          <mxGeometry width="50" height="50" relative="1" as="geometry">
            <mxPoint x="490" y="1018" as="sourcePoint" />
            <mxPoint x="540" y="968" as="targetPoint" />
          </mxGeometry>
        </mxCell>
        <mxCell id="vHyW8OZ8oajhjJQPIOyE-64" value="" style="endArrow=none;html=1;strokeColor=#66B2FF;entryX=0.5;entryY=1;entryDx=0;entryDy=0;" edge="1" parent="1" target="vHyW8OZ8oajhjJQPIOyE-37">
          <mxGeometry width="50" height="50" relative="1" as="geometry">
            <mxPoint x="386" y="983" as="sourcePoint" />
            <mxPoint x="407" y="1047" as="targetPoint" />
          </mxGeometry>
        </mxCell>
        <mxCell id="vHyW8OZ8oajhjJQPIOyE-65" value="" style="endArrow=classic;html=1;strokeColor=#66B2FF;exitX=1;exitY=0.5;exitDx=0;exitDy=0;entryX=1;entryY=0.132;entryDx=0;entryDy=0;entryPerimeter=0;rounded=0;" edge="1" parent="1" source="vHyW8OZ8oajhjJQPIOyE-51" target="vHyW8OZ8oajhjJQPIOyE-37">
          <mxGeometry width="50" height="50" relative="1" as="geometry">
            <mxPoint x="713" y="783" as="sourcePoint" />
            <mxPoint x="763" y="733" as="targetPoint" />
            <Array as="points">
              <mxPoint x="800" y="939" />
              <mxPoint x="800" y="601" />
            </Array>
          </mxGeometry>
        </mxCell>
        <mxCell id="vHyW8OZ8oajhjJQPIOyE-66" value="1.上传梯度" style="text;html=1;strokeColor=none;fillColor=none;align=center;verticalAlign=middle;whiteSpace=wrap;rounded=0;" vertex="1" parent="1">
          <mxGeometry x="178" y="769" width="68" height="20" as="geometry" />
        </mxCell>
        <mxCell id="vHyW8OZ8oajhjJQPIOyE-67" value="1.上传梯度" style="text;html=1;strokeColor=none;fillColor=none;align=center;verticalAlign=middle;whiteSpace=wrap;rounded=0;" vertex="1" parent="1">
          <mxGeometry x="721" y="745" width="68" height="20" as="geometry" />
        </mxCell>
        <mxCell id="vHyW8OZ8oajhjJQPIOyE-69" value="2.下载已更新的全部梯度" style="text;html=1;strokeColor=none;fillColor=none;align=center;verticalAlign=middle;whiteSpace=wrap;rounded=0;" vertex="1" parent="1">
          <mxGeometry x="298.25" y="954" width="72.5" height="20" as="geometry" />
        </mxCell>
        <mxCell id="vHyW8OZ8oajhjJQPIOyE-70" value="&lt;b&gt;&lt;font style=&quot;font-size: 15px&quot;&gt;...&lt;/font&gt;&lt;/b&gt;" style="text;html=1;strokeColor=none;fillColor=none;align=center;verticalAlign=middle;whiteSpace=wrap;rounded=0;" vertex="1" parent="1">
          <mxGeometry x="264" y="1070" width="74" height="20" as="geometry" />
        </mxCell>
        <mxCell id="vHyW8OZ8oajhjJQPIOyE-71" value="&lt;b&gt;&lt;font style=&quot;font-size: 15px&quot;&gt;...&lt;/font&gt;&lt;/b&gt;" style="text;html=1;strokeColor=none;fillColor=none;align=center;verticalAlign=middle;whiteSpace=wrap;rounded=0;" vertex="1" parent="1">
          <mxGeometry x="436.75" y="1070" width="74" height="20" as="geometry" />
        </mxCell>
        <mxCell id="vHyW8OZ8oajhjJQPIOyE-74" value="" style="rounded=0;whiteSpace=wrap;html=1;strokeColor=#005CA2;gradientColor=none;fillColor=none;" vertex="1" parent="1">
          <mxGeometry x="16" y="464" width="795" height="649" as="geometry" />
        </mxCell>
      </root>
    </mxGraphModel>
  </diagram>
</mxfile>
